<mxfile host="app.diagrams.net" modified="2023-11-18T22:08:57.391Z" agent="Mozilla/5.0 (Windows NT 10.0; Win64; x64) AppleWebKit/537.36 (KHTML, like Gecko) Chrome/119.0.0.0 Safari/537.36" etag="V4ZutdtUTkoIGKRrcPs-" version="22.1.3" type="device">
  <diagram name="Page-1" id="a9VuShd5SKipRdLEGQU_">
    <mxGraphModel dx="1114" dy="626" grid="1" gridSize="10" guides="1" tooltips="1" connect="1" arrows="1" fold="1" page="1" pageScale="1" pageWidth="827" pageHeight="1169" math="0" shadow="0">
      <root>
        <mxCell id="0" />
        <mxCell id="1" parent="0" />
        <mxCell id="Jmy8QfmfxXPcb8k9Svl9-1" value="&lt;font style=&quot;font-size: 20px;&quot;&gt;&lt;b&gt;Card Class&lt;/b&gt;&lt;br&gt;---&lt;br&gt;&lt;span style=&quot;font-size: 15px; background-color: initial;&quot;&gt;Attributes: value, suit, name.&lt;/span&gt;&lt;span style=&quot;font-size: 15px; background-color: initial;&quot;&gt;No associations with other classes directly.&lt;/span&gt;&lt;span style=&quot;font-size: 15px; background-color: initial;&quot;&gt;&lt;br&gt;&lt;/span&gt;&lt;/font&gt;" style="whiteSpace=wrap;html=1;aspect=fixed;" vertex="1" parent="1">
          <mxGeometry x="70" y="240" width="200" height="200" as="geometry" />
        </mxCell>
        <mxCell id="Jmy8QfmfxXPcb8k9Svl9-4" style="edgeStyle=orthogonalEdgeStyle;rounded=0;orthogonalLoop=1;jettySize=auto;html=1;exitX=0.5;exitY=1;exitDx=0;exitDy=0;" edge="1" parent="1" source="Jmy8QfmfxXPcb8k9Svl9-1" target="Jmy8QfmfxXPcb8k9Svl9-1">
          <mxGeometry relative="1" as="geometry" />
        </mxCell>
        <mxCell id="Jmy8QfmfxXPcb8k9Svl9-7" value="&lt;font style=&quot;&quot;&gt;&lt;b style=&quot;font-size: 20px;&quot;&gt;Deck Class&lt;/b&gt;&lt;br&gt;---&lt;br&gt;&lt;div style=&quot;&quot;&gt;&lt;span style=&quot;font-size: 15px;&quot;&gt;Attributes: cards (a collection of Card objects).&lt;/span&gt;&lt;/div&gt;&lt;div style=&quot;&quot;&gt;&lt;span style=&quot;font-size: 15px;&quot;&gt;Methods include deck initialization, shuffle, and draw.&lt;/span&gt;&lt;/div&gt;&lt;div style=&quot;&quot;&gt;&lt;span style=&quot;font-size: 15px;&quot;&gt;Association: Aggregates Card objects.&lt;/span&gt;&lt;/div&gt;&lt;/font&gt;" style="whiteSpace=wrap;html=1;aspect=fixed;" vertex="1" parent="1">
          <mxGeometry x="300" y="240" width="200" height="200" as="geometry" />
        </mxCell>
        <mxCell id="Jmy8QfmfxXPcb8k9Svl9-8" value="&lt;font style=&quot;&quot;&gt;&lt;b style=&quot;font-size: 20px;&quot;&gt;Player Class&lt;/b&gt;&lt;br&gt;---&lt;br&gt;&lt;div style=&quot;&quot;&gt;&lt;span style=&quot;font-size: 15px;&quot;&gt;Attributes: name, type, hand (a collection of Card objects), cash.&lt;/span&gt;&lt;/div&gt;&lt;div style=&quot;&quot;&gt;&lt;span style=&quot;font-size: 15px;&quot;&gt;Methods might include actions like play card, discard card.&lt;/span&gt;&lt;/div&gt;&lt;div style=&quot;&quot;&gt;&lt;span style=&quot;font-size: 15px;&quot;&gt;Association: Aggregates Card objects in hand.&lt;/span&gt;&lt;/div&gt;&lt;/font&gt;" style="whiteSpace=wrap;html=1;aspect=fixed;" vertex="1" parent="1">
          <mxGeometry x="540" y="240" width="200" height="200" as="geometry" />
        </mxCell>
        <mxCell id="Jmy8QfmfxXPcb8k9Svl9-9" value="&lt;font style=&quot;&quot;&gt;&lt;b style=&quot;font-size: 20px;&quot;&gt;Player Class&lt;/b&gt;&lt;br&gt;---&lt;br&gt;&lt;div style=&quot;&quot;&gt;&lt;span style=&quot;font-size: 15px;&quot;&gt;Attributes: name, type, hand (a collection of Card objects), cash.&lt;/span&gt;&lt;/div&gt;&lt;div style=&quot;&quot;&gt;&lt;span style=&quot;font-size: 15px;&quot;&gt;Methods might include actions like play card, discard card.&lt;/span&gt;&lt;/div&gt;&lt;div style=&quot;&quot;&gt;&lt;span style=&quot;font-size: 15px;&quot;&gt;Association: Aggregates Card objects in hand.&lt;/span&gt;&lt;/div&gt;&lt;/font&gt;" style="whiteSpace=wrap;html=1;aspect=fixed;" vertex="1" parent="1">
          <mxGeometry x="70" y="490" width="200" height="200" as="geometry" />
        </mxCell>
      </root>
    </mxGraphModel>
  </diagram>
</mxfile>
